<svg version="1.1" xmlns="http://www.w3.org/2000/svg" xmlns:xlink="http://www.w3.org/1999/xlink" width="874.37237" height="745.24324" viewBox="0,0,874.37237,745.24324"><g transform="translate(197.18619,192.62162)"><g data-paper-data="{&quot;isPaintingLayer&quot;:true}" fill-rule="nonzero" stroke-linecap="butt" stroke-linejoin="miter" stroke-miterlimit="10" stroke-dasharray="" stroke-dashoffset="0" style="mix-blend-mode: normal"><path d="M-196.18619,551.62162v-743.24324h872.37237v743.24324z" fill-opacity="0.26613" fill="#000000" stroke="#000000" stroke-width="2"/><path d="M122.00549,215.625c0,-22.78317 0,-63.22511 0,-74.75c0,-6.04009 6.54656,-12.4125 14.01238,-12.4125c24.67354,0 161.41766,0 207.10714,0c9.33547,0 14.86955,7.82462 14.86955,14.84106c0,12.53096 0,54.04211 0,75.35714c0,7.78568 -5.94074,12.87679 -15.51241,12.87679c-45.81066,0 -180.26961,0 -205.46429,0c-7.93899,0 -15.01238,-6.42521 -15.01238,-15.9125z" fill="#07002d" stroke="none" stroke-width="0"/><text transform="translate(140.88714,206.80176) scale(2.14979,2.23348)" font-size="40" xml:space="preserve" fill="#ffffff" fill-rule="nonzero" stroke="none" stroke-width="1" stroke-linecap="butt" stroke-linejoin="miter" stroke-miterlimit="10" stroke-dasharray="" stroke-dashoffset="0" font-family="Curly" font-weight="normal" text-anchor="start" style="mix-blend-mode: normal"><tspan x="0" dy="0">ST⬡P</tspan></text></g></g></svg>